<svg xmlns="http://www.w3.org/2000/svg" width="24" height="24" viewBox="0 0 24 24">
    <g fill="none" fill-rule="evenodd">
        <g fill="#FFF" fill-rule="nonzero">
            <g>
                <g>
                    <g>
                        <path d="M12 2c3.314 0 6 2.686 6 6 0 1.944-.924 3.671-2.357 4.768C18.798 14.166 21 17.326 21 21h-2c0-3.866-3.134-7-7-7s-7 3.134-7 7H3c0-3.674 2.202-6.834 5.357-8.232C6.924 11.67 6 9.944 6 8c0-3.314 2.686-6 6-6zm0 10c2.21 0 4-1.79 4-4s-1.79-4-4-4-4 1.79-4 4 1.79 4 4 4z" transform="translate(-460.000000, -158.000000) translate(180.000000, 88.000000) translate(0.000000, 58.000000) translate(280.000000, 12.000000)"/>
                    </g>
                </g>
            </g>
        </g>
    </g>
</svg>
