<svg width="104" height="22" xmlns="http://www.w3.org/2000/svg">
    <g fill="none" fill-rule="evenodd">
        <path d="M46.5 22C53.086 22 57 17.528 57 11S53.028 0 46.5 0H38v22h8.5zm.041-4.946L43 17V5h3.541c3.595 0 5.378 2.736 5.378 5.986 0 3.25-1.783 6.068-5.378 6.068zM67.512 22C71.97 22 76 19.5 76 14V0h-5v13.5c0 2.5-1.5 3.5-3.5 3.5S64 16 64 13.5V0h-5v14c0 5.5 4.084 8 8.512 8zM89 22c6.356 0 11-4.903 11-11 0-6.125-4.73-11-11-11S78 4.889 78 11.043C78 17.14 82.644 22 89 22zm0-5c-3.451 0-6-2.39-6-5.986C83 7.362 85.578 5 89 5c3.365 0 5.971 2.29 6 6 .029 3.595-2.52 6-6 6z" fill="#FFF" fill-rule="nonzero"/>
        <path d="m4 1 10.332 6.944-4.046 2.794 1.69 1.199 3.472 2.539 3.223-2.269 4.8 3.232-1.784 1.246-2.293-1.626-1.012.693 2.302 1.633-2.005 1.4-2.323-1.646-1.013.693 2.333 1.654L15.508 21l-8.95-6.25L4 1z" fill="#FFF"/>
        <path fill="#E84057" d="M12.275 10.792 27 1l-2.525 13.81-5.748-3.892-3.194 2.26-2.822-2.075z"/>
    </g>
</svg>
