
<svg width="136pt" height="136pt" viewBox="0 0 136 136" version="1.1" id="svg9" xmlns="http://www.w3.org/2000/svg">
  <defs id="defs13"></defs>
  
  <g id="#c8aa6eff">
    <path fill="#c8aa6e" opacity="1.00" d=" M 72.13 57.86 C 78.70 41.10 90.04 26.94 99.94 12.10 C 93.00 29.47 84.31 46.87 84.04 65.97 C 83.31 70.78 81.21 75.28 80.04 80.00 C 77.96 72.43 75.13 65.10 72.13 57.86 Z" id="path2"></path>
    <path fill="#c8aa6e" opacity="1.00" d=" M 36.21 12.35 C 49.27 32.54 62.88 52.96 69.82 76.22 C 74.59 91.71 75.24 109.16 68.02 124.02 C 62.44 117.92 56.94 111.73 51.31 105.68 C 46.34 100.96 41.05 96.58 35.99 91.97 C 34.44 80.24 33.02 68.10 27.27 57.55 C 24.52 52.31 20.56 47.83 16.08 44.00 C 25.75 48.75 35.26 54.41 42.31 62.72 C 46.68 67.70 49.77 73.66 52.00 79.87 C 53.15 69.58 52.58 59.08 49.95 49.06 C 46.64 36.38 40.96 24.51 36.21 12.35 Z" id="path4"></path>
    <path fill="#c8aa6e" opacity="1.00" d=" M 105.84 53.83 C 109.97 49.83 114.80 46.64 119.88 43.99 C 115.48 47.87 111.48 52.31 108.74 57.54 C 102.99 68.10 101.56 80.25 100.00 91.99 C 94.68 97.34 89.32 102.64 84.02 108.00 C 84.17 103.63 83.77 99.16 85.04 94.90 C 88.43 79.82 94.52 64.72 105.84 53.83 Z" id="path6"></path>
  </g>
  <path style="fill:#c8aa6d;stroke:none;stroke-width:0.220332;fill-opacity:1" d="M 80.531389,153.97723 C 68.882666,141.13763 68.048777,140.28132 61.655323,134.59352 56.02812,129.58741 49.668125,123.95109 48.760168,123.16565 c -0.518072,-0.44816 -0.675111,-0.81776 -0.842548,-1.98298 -0.113185,-0.78769 -0.563667,-4.01005 -1.001073,-7.1608 -2.27282,-16.371739 -4.973579,-26.413847 -9.569681,-35.582497 -2.959632,-5.904092 -6.021195,-10.155876 -10.96749,-15.231235 -1.875047,-1.923973 -3.345138,-3.498134 -3.266867,-3.498134 0.479387,0 8.033662,4.106942 12.180245,6.621888 8.76455,5.31579 16.047732,11.423674 21.797715,18.28018 4.290117,5.115707 8.209152,11.88029 10.982208,18.956218 0.591016,1.50808 1.142556,2.82144 1.225643,2.91858 0.170874,0.19977 0.314392,-1.18268 0.68167,-6.566254 C 70.288929,95.39218 70.111559,86.28521 69.625963,81.743216 68.050289,67.005249 64.823664,56.459812 53.451195,28.879917 51.131347,23.253948 49.260537,18.576561 49.293843,18.485723 c 0.06446,-0.175809 6.450879,9.657261 11.963437,18.419907 15.072261,23.958553 24.13531,41.873374 29.928427,59.159174 4.943779,14.751506 6.740509,25.344576 6.4718,38.156156 -0.227083,10.82708 -1.929809,19.09579 -5.833281,28.32737 -0.576065,1.36238 -1.096968,2.47747 -1.157559,2.47798 -0.06059,4.4e-4 -4.621467,-4.97158 -10.135278,-11.04908 z" id="path969" transform="scale(0.75)"></path>
  <path style="fill:#c8aa6d;stroke:none;stroke-width:0.220332;fill-opacity:1" d="m 105.49964,102.16091 c -1.58036,-5.282649 -3.6427,-11.073497 -6.627372,-18.609043 l -2.556219,-6.453801 0.729978,-1.808653 c 1.389321,-3.442295 4.354363,-9.594611 6.672413,-13.844935 4.30909,-7.90105 8.63758,-14.750713 16.69026,-26.411671 2.71976,-3.938437 6.51005,-9.43065 8.42287,-12.204917 1.91283,-2.774268 3.47787,-4.948441 3.47787,-4.831496 0,0.116945 -1.49812,3.824468 -3.32915,8.238939 -6.83599,16.48103 -10.04694,25.10042 -12.4147,33.325625 -2.72355,9.461194 -4.068,17.092985 -4.50937,25.597406 -0.22759,4.385367 -0.70095,6.439918 -3.41952,14.841796 -0.916,2.83096 -1.66546,5.27905 -1.66546,5.44022 0,0.16117 -0.0765,0.34031 -0.16999,0.39809 -0.0935,0.0578 -0.67922,-1.59712 -1.30161,-3.67756 z" id="path1045" transform="scale(0.75)"></path>
  <path style="fill:#c8aa6d;stroke:none;stroke-width:0.220332;fill-opacity:1" d="m 112.18447,142.40448 c 0.0361,-0.70497 0.11249,-3.51262 0.1697,-6.23923 0.10984,-5.23511 0.1797,-5.7474 1.55439,-11.39963 2.71661,-11.16973 5.62708,-19.55898 9.71173,-27.993449 6.71513,-13.866183 15.05909,-24.061183 26.0724,-31.856338 2.07627,-1.469572 8.17639,-5.205829 8.49946,-5.205829 0.0969,0 -1.25859,1.470085 -3.01211,3.266855 -4.86725,4.987317 -7.80111,8.963697 -10.64918,14.4333 -5.19343,9.973742 -7.82173,19.762942 -10.45107,38.925301 l -0.85717,6.24693 -10.55192,10.55193 -10.55192,10.55192 z" id="path1121" transform="scale(0.75)"></path>
</svg>
