
<svg width="136pt" height="136pt" viewBox="0 0 136 136" version="1.1" id="svg8" xmlns="http://www.w3.org/2000/svg">
  <defs id="defs12"></defs>
  
  <g fill="#624c27" id="g4">
    <path d="M16 16c22.67 0 45.33 0 67.99.01C78.62 21.34 73.28 26.69 67.88 32c-11.96 0-23.92-.01-35.88 0-.01 12 .01 24-.01 36-5.32 5.3-10.64 10.6-15.98 15.89C15.99 61.26 16 38.63 16 16zM103.95 67.9c5.32-5.37 10.69-10.68 16.04-16.02.02 22.71.01 45.41 0 68.12-22.65 0-45.31.01-67.97-.01 5.33-5.33 10.65-10.67 15.99-15.99 12-.01 23.99.01 35.99 0 .04-12.04-.05-24.07-.05-36.1z" id="path2"></path>
  </g>
  <path fill="#c8aa6e" d="M100.02 16H120v19.99C92 64 64 92 35.99 120H16v-19.99C44 72 72 43.99 100.02 16z" id="path6"></path>
  <path style="fill:#614a23;stroke:none;stroke-width:0.220332;fill-opacity:1" d="M 21.482382,66.470457 V 21.372215 h 45.171845 45.171843 l -10.63478,10.567856 -10.634789,10.567856 -23.961118,0.0081 -23.961118,0.0081 -0.02658,24.071284 -0.02658,24.071284 -10.549361,10.451015 -10.54936,10.45102 z" id="path866" transform="scale(0.75)"></path>
  <path style="fill:#614a23;stroke:none;stroke-width:0.220332;fill-opacity:1" d="m 80.200891,149.38518 10.57422,-10.57595 h 23.961979 23.96198 V 114.77547 90.741709 l 4.31676,-4.461166 c 2.37422,-2.453642 7.1334,-7.212754 10.57594,-10.575806 l 6.25918,-6.114639 v 45.185512 45.18551 H 114.73881 69.626671 Z" id="path942" transform="scale(0.75)"></path>
  <path style="fill:#c8aa6d;stroke:none;stroke-width:0.220332;fill-opacity:1" d="M 21.482382,146.68595 V 133.41077 L 77.501986,77.391494 133.52159,21.372216 h 13.16468 13.16468 V 34.647388 47.92256 l -56.0196,56.01928 -56.019604,56.01928 H 34.647064 21.482382 Z" id="path862" transform="scale(0.75)"></path>
</svg>
