<svg width="20" height="20" viewBox="0 0 20 20" xmlns="http://www.w3.org/2000/svg">
    <path d="M8.611 5.356c.397 1.573 1.178 3.1 2.446 4.146.967.815 2.166 1.31 3.396 1.565l-.023.152-.012.08-.195.13c-.46.308-.92.617-1.43.835-.662.301-1.236.824-1.535 1.493-.106.208-.174.435-.242.662-.111.37-.223.741-.496 1.03-.274.283-.702.305-1.07.246-.787-.118-1.516-.433-2.244-.747-.257-.111-.515-.222-.775-.324a.603.603 0 0 0-.28.688c.032.105.073.21.114.314.117.302.235.608.148.936-.097.67-.892 1.177-1.515.82-.6-.32-.685-1.066-.642-1.675a3.709 3.709 0 0 0-.432-.022c-.347-.005-.698-.01-.98-.233-.402-.302-.4-.877-.254-1.312.15-.44.632-.702 1.085-.632.155.026.307.063.46.1.304.075.608.15.926.133a72.274 72.274 0 0 1 .358-.342 5.363 5.363 0 0 1-1.353-3.234c-.021-.354.063-.75.353-.982.23-.19.51-.266.792-.342.187-.05.373-.1.545-.183.892-.356 1.593-1.109 1.938-2 .181-.51.547-.92.917-1.302zm3.442-.989.075.036c.194.089.436.2.393.448a2.364 2.364 0 0 1-.217.506c-.123.234-.246.468-.25.742-.083.78.53 1.561 1.323 1.617.408.06.778-.112 1.138-.28.079-.036.157-.072.235-.105.18-.092.421-.051.519.14.267.497.502 1.03.564 1.597.04.358-.07.788-.41.968-.433.24-.957.18-1.425.104-1.449-.288-2.742-1.212-3.552-2.438-.53-.79-.86-1.73-.863-2.685-.006-.384.137-.827.525-.978.657-.205 1.342.075 1.945.328zM15.21 2.93c.244.349.234.779.224 1.19-.002.07-.004.14-.004.207.081.002.165 0 .249 0 .387-.006.79-.012 1.116.22.555.376.5 1.252.06 1.696-.407.372-1.039.286-1.496.056-.347-.187-.776-.044-1.03.234l-.021.023c-.21.22-.458.478-.793.428-.438-.068-.65-.547-.67-.944.025-.23.18-.385.335-.542.14-.143.283-.286.328-.485.074-.254.006-.496-.063-.74-.055-.195-.11-.39-.093-.593.008-.417.108-.928.534-1.113.455-.15 1.038-.057 1.324.363z" fill="#E84057" fill-rule="evenodd"/>
</svg>
