
<svg width="136pt" height="136pt" viewBox="0 0 136 136" version="1.1" id="svg11" xmlns="http://www.w3.org/2000/svg">
  <defs id="defs15"></defs>
  
  <g id="#c8aa6eff">
    <path fill="#c8aa6e" opacity="1.00" d=" M 52.21 12.03 C 62.54 11.93 72.87 12.09 83.20 11.95 C 84.91 14.57 86.40 17.32 87.99 20.02 C 81.32 28.00 74.68 36.01 68.00 43.98 C 61.32 36.00 54.66 28.00 48.01 19.99 C 49.41 17.34 50.83 14.70 52.21 12.03 Z" id="path2"></path>
    <path fill="#c8aa6e" opacity="1.00" d=" M 0.00 36.30 C 14.64 35.62 29.33 36.19 43.99 36.00 C 48.00 40.00 52.00 44.00 56.00 48.01 C 53.33 57.33 50.68 66.67 47.99 75.99 C 41.33 73.34 34.67 70.67 28.01 68.00 C 31.98 62.65 36.03 57.37 39.97 52.01 C 34.96 51.93 29.82 52.41 24.97 50.87 C 15.58 48.12 7.75 42.05 0.00 36.34 L 0.00 36.30 Z" id="path4"></path>
    <path fill="#c8aa6e" opacity="1.00" d=" M 92.02 36.00 C 106.68 36.05 121.34 35.91 136.00 36.07 L 136.00 36.10 C 128.70 42.00 120.90 47.63 111.90 50.60 C 106.79 52.45 101.31 51.94 95.99 52.01 C 100.00 57.33 103.99 62.66 107.98 67.99 C 101.34 70.69 94.67 73.33 88.01 75.99 C 85.32 66.67 82.67 57.34 80.00 48.01 C 84.01 44.00 88.00 39.99 92.02 36.00 Z" id="path6"></path>
    <path fill="#c8aa6e" opacity="1.00" d=" M 64.01 52.11 C 65.37 53.37 66.71 54.66 68.00 56.00 C 69.32 54.67 70.65 53.35 71.99 52.03 C 76.03 72.00 79.96 91.99 84.01 111.95 C 78.70 116.00 73.35 120.02 67.97 123.98 C 62.65 119.97 57.30 116.01 51.99 111.97 C 56.03 92.03 59.95 72.05 64.01 52.11 Z" id="path8"></path>
  </g>
  <path style="fill:#a0a0a0;stroke:none;stroke-width:0.220332" d="M 50.676387,95.90965 C 43.52661,93.048371 37.644463,90.682372 37.604951,90.651876 c -0.03951,-0.0305 3.505081,-4.822539 7.876873,-10.648982 4.371792,-5.826445 7.948715,-10.633412 7.948715,-10.682149 0,-0.04874 -3.29672,-0.138933 -7.326043,-0.200435 C 37.95104,68.99586 36.837569,68.852305 32.087883,67.31321 23.678496,64.588221 16.170501,60.259464 3.1354737,50.620612 L 0.32198012,48.540152 2.5846434,48.363263 C 3.829108,48.265974 16.957569,48.165254 31.759,48.139441 l 26.911695,-0.04693 7.947029,7.956986 7.947032,7.956987 -5.315662,18.562981 c -2.923614,10.20964 -5.373588,18.558375 -5.444387,18.552745 -0.0708,-0.006 -5.978543,-2.351277 -13.12832,-5.212556 z" id="path869" transform="scale(0.75)"></path>
  <path style="fill:#a0a0a0;stroke:none;stroke-width:0.220332" d="M 77.44674,42.616242 C 70.236371,33.952069 64.309948,26.786007 64.276911,26.691659 c -0.03304,-0.09435 1.172598,-2.494827 2.679188,-5.334396 l 2.739256,-5.162852 20.598012,-0.05621 20.598013,-0.05621 1.19364,1.929032 c 0.6565,1.060967 2.06563,3.442777 3.13138,5.29291 1.69857,2.948668 1.90081,3.409865 1.63852,3.736439 -1.78342,2.220484 -26.059344,31.249219 -26.161258,31.28319 -0.07544,0.02514 -6.036554,-7.043152 -13.246922,-15.707322 z" id="path908" transform="scale(0.75)"></path>
  <path style="fill:#a0a0a0;stroke:none;stroke-width:0.220332" d="m 112.08326,82.569461 -5.31664,-18.562981 7.97918,-7.985455 7.97919,-7.985456 24.6772,0.02826 c 13.57246,0.01554 26.65201,0.08919 29.06567,0.163665 l 4.38849,0.135406 -1.96483,1.562532 c -11.06247,8.797441 -20.26332,14.206357 -29.39618,17.28116 -4.8985,1.649204 -6.03433,1.800863 -14.37667,1.919619 -3.96873,0.0565 -7.21588,0.143316 -7.21588,0.192934 0,0.04962 3.57199,4.850727 7.93775,10.669132 l 7.93775,10.578919 -0.9422,0.403315 c -1.43068,0.612413 -25.25427,10.161929 -25.3514,10.161929 -0.0466,0 -2.47728,-8.353339 -5.40143,-18.562979 z" id="path947" transform="scale(0.75)"></path>
  <path style="fill:#c8aa6d;stroke:none;stroke-width:0.220332;fill-opacity:1" d="m 79.980559,157.19052 c -5.695585,-4.30454 -10.383909,-7.90659 -10.418496,-8.00455 -0.05017,-0.14209 14.651878,-73.817129 15.605341,-78.201635 l 0.255395,-1.174435 0.583862,0.506706 c 0.321124,0.278687 1.501199,1.400325 2.622389,2.492528 l 2.038527,1.985824 2.643531,-2.636643 c 1.453941,-1.450154 2.64353,-2.575764 2.64353,-2.501355 0,0.07441 3.56938,17.939987 7.931952,39.70129 4.36258,21.7613 7.93196,39.65225 7.93196,39.75766 0,0.25604 -20.627832,15.71676 -21.107443,15.8202 -0.230138,0.0496 -4.374239,-2.94169 -10.730548,-7.74559 z" id="path986" transform="scale(0.75)"></path>
  <path style="fill:#c8aa6d;stroke:none;stroke-width:0.220332;fill-opacity:1" d="m 117.47418,100.74686 c -0.0816,-0.13612 -5.96171,-20.495319 -9.64578,-33.397188 l -0.93282,-3.266772 7.94133,-7.94133 7.94133,-7.94133 27.18439,0.05088 c 14.95142,0.02798 27.92743,0.114156 28.83559,0.191495 l 1.6512,0.140618 -2.42236,1.893133 c -9.19743,7.188011 -17.56447,12.330161 -24.78607,15.232821 -2.86309,1.150793 -6.63344,2.360586 -8.47248,2.718564 -1.52142,0.29615 -10.0107,0.702435 -15.59881,0.746537 -0.6968,0.0055 -1.26691,0.08982 -1.26691,0.187385 0,0.09756 3.52062,4.875754 7.8236,10.618202 4.30298,5.742445 7.74843,10.512946 7.65654,10.60111 -0.15464,0.148387 -25.49873,10.331125 -25.71341,10.331125 -0.053,0 -0.14089,-0.0744 -0.19534,-0.16525 z" id="path1062" transform="scale(0.75)"></path>
  <path style="fill:#c8aa6d;stroke:none;stroke-width:0.220332;fill-opacity:1" d="M 88.738974,55.906682 C 86.701931,53.533722 67.941704,31.024432 65.668666,28.225979 l -1.312297,-1.615636 1.145975,-2.233482 c 0.630287,-1.228416 1.845297,-3.547213 2.700023,-5.152884 l 1.554047,-2.9194 17.781169,-8.94e-4 c 9.779643,-4.91e-4 19.020537,-0.0605 20.535317,-0.133343 l 2.75416,-0.132449 1.87204,3.162909 c 2.21477,3.741947 4.18709,7.28221 4.18709,7.515705 0,0.150696 -15.7075,19.045971 -23.171297,27.873831 l -3.029745,3.583451 z" id="path1138" transform="scale(0.75)"></path>
  <path style="fill:#c8aa6d;stroke:none;stroke-width:0.220332;fill-opacity:1" d="m 50.797198,95.839146 c -6.962152,-2.784683 -12.729032,-5.137255 -12.815292,-5.227935 -0.08626,-0.09068 2.915509,-4.279579 6.670599,-9.308659 8.037645,-10.764579 8.858486,-11.890926 8.746958,-12.002453 -0.04633,-0.04633 -3.50373,-0.189531 -7.683118,-0.318229 C 40.828529,68.831357 37.545441,68.632734 36.514153,68.42515 32.324683,67.581865 25.189485,64.737609 20.162194,61.906875 14.692493,58.827033 0.60458206,49.019918 1.0227941,48.583232 1.1606728,48.439263 11.176248,48.338584 29.921075,48.29274 l 28.687268,-0.07016 7.912944,7.929163 7.912946,7.929164 -1.495541,5.250757 c -6.261535,21.983871 -9.097018,31.582816 -9.327254,31.575496 -0.08568,-0.003 -5.852091,-2.283334 -12.81424,-5.068015 z" id="path1325" transform="scale(0.75)"></path>
</svg>
