
<svg width="136pt" height="136pt" viewBox="0 0 136 136" version="1.1" id="svg10" xmlns="http://www.w3.org/2000/svg">
  <defs id="defs14"></defs>
  
  <g id="#c8aa6eff">
    <path fill="#c8aa6e" opacity="1.00" d=" M 16.00 16.00 C 48.06 16.00 80.12 15.99 112.18 16.01 C 105.46 22.68 98.73 29.34 91.99 36.00 C 73.33 36.00 54.66 36.00 36.00 36.00 C 36.00 54.67 36.00 73.34 36.00 92.00 C 29.34 98.73 22.67 105.46 16.01 112.18 C 15.99 80.12 16.01 48.06 16.00 16.00 Z" id="path2"></path>
  </g>
  <g id="#59431dbf">
    <path fill="#59431d" opacity="0.75" d=" M 104.00 44.02 C 109.32 38.69 114.65 33.38 119.99 28.08 C 120.01 58.72 120.00 89.36 120.00 120.00 C 89.36 120.00 58.72 120.01 28.07 119.99 C 33.40 114.65 38.73 109.33 44.07 104.00 C 64.04 103.99 84.02 104.01 104.00 104.00 C 104.00 84.00 104.00 64.01 104.00 44.02 Z" id="path5"></path>
    <path fill="#59431d" opacity="0.75" d=" M 56.00 56.00 C 65.33 56.00 74.67 56.00 84.00 56.00 C 84.00 65.33 84.00 74.66 84.00 84.00 C 74.67 84.00 65.33 84.00 56.00 84.00 C 56.00 74.66 56.00 65.33 56.00 56.00 Z" id="path7"></path>
  </g>
  <path style="fill:#624c27;stroke:none;stroke-width:0.220332;fill-opacity:1" d="m 48.252734,149.38518 10.57422,-10.57595 H 98.763011 138.69907 V 98.762876 58.716519 l 9.0887,-9.035336 c 4.99878,-4.969434 9.75796,-9.675721 10.57594,-10.458415 l 1.48724,-1.42308 V 98.880403 159.96112 H 98.764734 37.678514 Z" id="path868" transform="scale(0.75)"></path>
  <path style="fill:#624c27;stroke:none;stroke-width:0.220332;fill-opacity:1" d="M 74.802754,93.310652 V 74.692588 H 93.310652 111.81855 V 93.310652 111.92872 H 93.310652 74.802754 Z" id="path944" transform="scale(0.75)"></path>
</svg>
